<?xml version="1.0" encoding="UTF-8" standalone="no"?>
<!-- Created with Inkscape (http://www.inkscape.org/) -->

<svg
   xmlns:dc="http://purl.org/dc/elements/1.1/"
   xmlns:cc="http://creativecommons.org/ns#"
   xmlns:rdf="http://www.w3.org/1999/02/22-rdf-syntax-ns#"
   xmlns:svg="http://www.w3.org/2000/svg"
   xmlns="http://www.w3.org/2000/svg"
   xmlns:sodipodi="http://sodipodi.sourceforge.net/DTD/sodipodi-0.dtd"
   xmlns:inkscape="http://www.inkscape.org/namespaces/inkscape"
   width="106.49895mm"
   height="43.511116mm"
   viewBox="0 0 377.35849 154.17324"
   id="svg3623"
   version="1.1"
   inkscape:version="0.91 r13725"
   sodipodi:docname="logo-v1-white-alpha.svg"
   inkscape:export-filename="/home/mv/edu/usherbrooke/00-general/jdis/events/jdisconf-2017/logo-v1-white-alpha.png"
   inkscape:export-xdpi="186.95"
   inkscape:export-ydpi="186.95">
  <defs
     id="defs3625" />
  <sodipodi:namedview
     id="base"
     pagecolor="#ffffff"
     bordercolor="#666666"
     borderopacity="1.0"
     inkscape:pageopacity="0.0"
     inkscape:pageshadow="2"
     inkscape:zoom="0.70710678"
     inkscape:cx="116.94865"
     inkscape:cy="-9.7221988"
     inkscape:document-units="px"
     inkscape:current-layer="layer1"
     showgrid="false"
     inkscape:window-width="1350"
     inkscape:window-height="726"
     inkscape:window-x="0"
     inkscape:window-y="16"
     inkscape:window-maximized="0"
     fit-margin-top="0"
     fit-margin-left="0"
     fit-margin-right="0"
     fit-margin-bottom="0" />
  <metadata
     id="metadata3628">
    <rdf:RDF>
      <cc:Work
         rdf:about="">
        <dc:format>image/svg+xml</dc:format>
        <dc:type
           rdf:resource="http://purl.org/dc/dcmitype/StillImage" />
        <dc:title></dc:title>
      </cc:Work>
    </rdf:RDF>
  </metadata>
  <g
     inkscape:label="Calque 1"
     inkscape:groupmode="layer"
     id="layer1"
     transform="translate(-202.91993,-156.2628)">
    <g
       style="font-style:normal;font-variant:normal;font-weight:normal;font-stretch:normal;font-size:48.27477646px;line-height:125%;font-family:FreeMono;-inkscape-font-specification:FreeMono;letter-spacing:0px;word-spacing:0px;fill:#000000;fill-opacity:1;stroke:none;stroke-width:1px;stroke-linecap:butt;stroke-linejoin:miter;stroke-opacity:1"
       id="flowRoot4184"
       transform="translate(36.428571,-194.64285)" />
    <g
       id="g4452"
       transform="matrix(0.70823046,0,0,0.70823046,110.01007,18.380038)">
      <g
         transform="matrix(0.52676667,0,0,0.52676667,-238.94455,254.62238)"
         style="font-style:normal;font-variant:normal;font-weight:normal;font-stretch:normal;font-size:91.64356995px;line-height:125%;font-family:FreeMono;-inkscape-font-specification:FreeMono;letter-spacing:0px;word-spacing:0px;fill:#ffffff;fill-opacity:1;stroke:none;stroke-width:1px;stroke-linecap:butt;stroke-linejoin:miter;stroke-opacity:1"
         id="flowRoot4306">
        <path
           d="m 706.12202,25.248362 61.41065,0 0,114.710448 q 0,10.04199 -5.40723,14.86987 -5.40722,4.82789 -14.09741,4.82789 l -45.38208,0 0,-23.17383 34.76074,0 q 5.79346,0 5.79346,-6.37281 l 0,-81.68774 -37.07813,0 0,-23.173828 z m 67.20411,-28.3879395 q 0,3.86230467 -1.54493,7.3383789 -1.3518,3.282959 -3.8623,5.793457 -2.5105,2.3173826 -5.98657,3.8623046 -3.28296,1.351807 -6.95215,1.351807 -3.86231,0 -7.14526,-1.351807 -3.28296,-1.544922 -5.79346,-3.8623046 -2.5105,-2.510498 -4.05542,-5.793457 -1.35181,-3.47607423 -1.35181,-7.3383789 0,-3.8623047 1.35181,-7.1452635 1.54492,-3.476074 4.05542,-5.793457 2.5105,-2.510498 5.79346,-3.862305 3.28295,-1.544922 7.14526,-1.544922 3.66919,0 6.95215,1.544922 3.47607,1.351807 5.98657,3.862305 2.5105,2.317383 3.8623,5.793457 1.54493,3.2829588 1.54493,7.1452635 z"
           style="font-style:normal;font-variant:normal;font-weight:bold;font-stretch:normal;font-size:193.11523438px;line-height:91.00000262%;font-family:'Space Mono';-inkscape-font-specification:'Space Mono Bold';text-align:center;text-anchor:middle;fill:#ffffff"
           id="path4540"
           inkscape:connector-curvature="0" />
        <path
           d="m 883.65829,107.12922 -3.47607,0 q -1.54492,3.28296 -3.8623,6.3728 -2.12427,2.89673 -5.79346,5.21412 -3.47608,2.31738 -8.49707,3.66918 -4.82788,1.35181 -11.78003,1.35181 -8.8833,0 -16.60791,-3.08984 -7.5315,-3.28296 -13.32495,-9.46265 -5.60034,-6.3728 -8.8833,-15.449218 -3.08985,-9.076416 -3.08985,-20.856445 l 0,-3.476074 q 0,-11.586914 3.28296,-20.66333 3.47608,-9.076416 9.26953,-15.256104 5.98658,-6.372802 13.71119,-9.655761 7.91772,-3.282959 16.60791,-3.282959 11.58691,0 18.34594,4.44165 6.75904,4.248535 10.62134,12.16626 l 3.47607,0 0,-53.299805 24.33252,0 0,135.180666 -24.33252,0 0,-13.9043 z m -25.49121,-6.56592 q 11.3938,0 18.34595,-7.14526 7.14526,-7.338379 7.14526,-19.118409 l 0,-2.317382 q 0,-11.78003 -7.14526,-18.925293 -6.95215,-7.338379 -18.34595,-7.338379 -11.3938,0 -18.53906,7.145263 -6.95215,6.952149 -6.95215,19.118409 l 0,2.317382 q 0,12.16626 6.95215,19.311524 7.14526,6.952145 18.53906,6.952145 z"
           style="font-style:normal;font-variant:normal;font-weight:bold;font-stretch:normal;font-size:193.11523438px;line-height:91.00000262%;font-family:'Space Mono';-inkscape-font-specification:'Space Mono Bold';text-align:center;text-anchor:middle;fill:#ffffff"
           id="path4542"
           inkscape:connector-curvature="0" />
        <path
           d="m 934.70409,97.85969 32.44336,0 0,-49.4375 -30.12598,0 0,-23.173828 54.4585,0 0,72.611328 27.80863,0 0,23.17383 -84.58451,0 0,-23.17383 z M 997.46654,-3.1395775 q 0,3.86230467 -1.54492,7.3383789 -1.35181,3.282959 -3.86231,5.793457 -2.5105,2.3173826 -5.98657,3.8623046 -3.28296,1.351807 -6.95215,1.351807 -3.8623,0 -7.14526,-1.351807 -3.28296,-1.544922 -5.79346,-3.8623046 -2.5105,-2.510498 -4.05542,-5.793457 -1.35181,-3.47607423 -1.35181,-7.3383789 0,-3.8623047 1.35181,-7.1452635 1.54492,-3.476074 4.05542,-5.793457 2.5105,-2.510498 5.79346,-3.862305 3.28296,-1.544922 7.14526,-1.544922 3.66919,0 6.95215,1.544922 3.47607,1.351807 5.98657,3.862305 2.5105,2.317383 3.86231,5.793457 1.54492,3.2829588 1.54492,7.1452635 z"
           style="font-style:normal;font-variant:normal;font-weight:bold;font-stretch:normal;font-size:193.11523438px;line-height:91.00000262%;font-family:'Space Mono';-inkscape-font-specification:'Space Mono Bold';text-align:center;text-anchor:middle;fill:#ffffff"
           id="path4544"
           inkscape:connector-curvature="0" />
        <path
           d="m 1081.535,52.284495 q 0,4.634765 4.8279,6.759033 4.8279,1.931152 17.5735,3.282959 14.6768,1.544922 23.9463,8.883301 9.2695,7.145263 9.2695,20.083984 l 0,1.158692 q 0,14.290526 -10.4282,22.787596 -10.4282,8.49707 -29.3535,8.49707 -11.2007,0 -19.1184,-2.89673 -7.9177,-2.89673 -13.1318,-7.14526 -5.2142,-4.44165 -8.1109,-9.65576 -2.7036,-5.407229 -3.6692,-10.428225 l 22.4014,-7.338379 q 1.5449,6.179688 6.3728,10.814453 5.021,4.634761 15.2561,4.634761 9.0764,0 12.3594,-2.703609 3.476,-2.896728 3.476,-6.179687 0,-1.931152 -0.9655,-3.476074 -0.7725,-1.738037 -3.0899,-3.089844 -2.3174,-1.544922 -6.3728,-2.510498 -3.8623,-0.965576 -9.8489,-1.544922 -16.2216,-1.351807 -25.8774,-8.303955 -9.4626,-7.145264 -9.4626,-20.856445 l 0,-1.158692 q 0,-7.145263 3.0898,-12.55249 3.0898,-5.407227 8.1108,-9.076416 5.021,-3.862305 11.587,-5.793457 6.5659,-1.931152 13.518,-1.931152 9.0764,0 15.6424,2.317382 6.759,2.124268 11.3938,5.793458 4.6347,3.476074 7.5315,7.917724 2.8967,4.248535 4.4416,8.303955 l -22.0151,8.883301 q -1.7381,-5.214111 -5.9866,-8.11084 -4.2485,-3.089844 -11.0076,-3.089844 -6.1797,0 -9.2695,2.317383 -3.0899,2.124268 -3.0899,5.407227 z"
           style="font-style:normal;font-variant:normal;font-weight:bold;font-stretch:normal;font-size:193.11523438px;line-height:91.00000262%;font-family:'Space Mono';-inkscape-font-specification:'Space Mono Bold';text-align:center;text-anchor:middle;fill:#ffffff"
           id="path4546"
           inkscape:connector-curvature="0" />
        <path
           d="m 1262.5474,85.886546 q -3.283,16.994144 -15.6424,27.422364 -12.1662,10.42822 -32.6364,10.42822 -10.6214,0 -19.8909,-3.28296 -9.0764,-3.28296 -15.8354,-9.46264 -6.7591,-6.17969 -10.6214,-15.256108 -3.8623,-9.076416 -3.8623,-20.66333 l 0,-2.317382 q 0,-11.586914 3.8623,-20.856446 3.8623,-9.269531 10.6214,-15.835449 6.9521,-6.565918 16.0285,-10.041992 9.2695,-3.476074 19.6978,-3.476074 20.084,0 32.4433,10.428222 12.5525,10.428223 15.8355,27.422364 l -23.9463,6.179687 q -1.1587,-8.49707 -7.3384,-14.676758 -6.1797,-6.179687 -17.3804,-6.179687 -5.2141,0 -9.8488,1.931152 -4.6348,1.931152 -8.1109,5.600342 -3.4761,3.476074 -5.6003,8.690185 -1.9312,5.020997 -1.9312,11.393799 l 0,1.158692 q 0,6.372802 1.9312,11.393799 2.1242,4.82788 5.6003,8.110839 3.4761,3.282959 8.1109,5.020996 4.6347,1.544919 9.8488,1.544919 11.2007,0 16.9942,-5.600338 5.9866,-5.600342 7.7246,-15.062989 l 23.9463,5.986573 z"
           style="font-style:normal;font-variant:normal;font-weight:bold;font-stretch:normal;font-size:193.11523438px;line-height:91.00000262%;font-family:'Space Mono';-inkscape-font-specification:'Space Mono Bold';text-align:center;text-anchor:middle;fill:#ffffff"
           id="path4548"
           inkscape:connector-curvature="0" />
        <path
           d="m 1380.9904,74.299631 q 0,11.973145 -4.0554,21.242676 -4.0555,9.076413 -11.0076,15.449223 -6.9522,6.17968 -16.0286,9.46264 -8.8833,3.28296 -18.7322,3.28296 -9.8488,0 -18.9253,-3.28296 -8.8833,-3.28296 -15.8354,-9.46264 -6.9521,-6.37281 -11.0076,-15.449223 -4.0554,-9.269531 -4.0554,-21.242676 l 0,-2.317382 q 0,-11.78003 4.0554,-20.856446 4.0555,-9.269531 11.0076,-15.642334 6.9521,-6.372802 15.8354,-9.655761 9.0765,-3.282959 18.9253,-3.282959 9.8489,0 18.7322,3.282959 9.0764,3.282959 16.0286,9.655761 6.9521,6.372803 11.0076,15.642334 4.0554,9.076416 4.0554,20.856446 l 0,2.317382 z m -49.8238,26.263669 q 5.2142,0 9.8489,-1.738034 4.6348,-1.738037 8.1109,-5.020996 3.476,-3.282959 5.4072,-7.917724 2.1243,-4.827881 2.1243,-10.814454 l 0,-3.862304 q 0,-5.986573 -2.1243,-10.621338 -1.9312,-4.827881 -5.4072,-8.11084 -3.4761,-3.282959 -8.1109,-5.020996 -4.6347,-1.738037 -9.8489,-1.738037 -5.2141,0 -9.8488,1.738037 -4.6348,1.738037 -8.1109,5.020996 -3.476,3.282959 -5.6003,8.11084 -1.9312,4.634765 -1.9312,10.621338 l 0,3.862304 q 0,5.986573 1.9312,10.814454 2.1243,4.634765 5.6003,7.917724 3.4761,3.282959 8.1109,5.020996 4.6347,1.738034 9.8488,1.738034 z"
           style="font-style:normal;font-variant:normal;font-weight:bold;font-stretch:normal;font-size:193.11523438px;line-height:91.00000262%;font-family:'Space Mono';-inkscape-font-specification:'Space Mono Bold';text-align:center;text-anchor:middle;fill:#ffffff"
           id="path4550"
           inkscape:connector-curvature="0" />
        <path
           d="m 1429.5257,121.03352 -24.3325,0 0,-95.785158 24.3325,0 0,14.290527 3.4761,0 q 3.2829,-8.11084 10.6213,-12.55249 7.3384,-4.44165 17.1873,-4.44165 6.9521,0 12.9387,2.317382 6.1797,2.124268 10.8145,6.759034 4.6347,4.634765 7.1452,11.780029 2.7036,7.145264 2.7036,16.994141 l 0,60.638185 -24.3325,0 0,-54.458498 q 0,-10.235107 -5.021,-16.028564 -4.8279,-5.986573 -14.0974,-5.986573 -10.8145,0 -16.2217,7.338379 -5.2141,7.145264 -5.2141,19.311524 l 0,49.823732 z"
           style="font-style:normal;font-variant:normal;font-weight:bold;font-stretch:normal;font-size:193.11523438px;line-height:91.00000262%;font-family:'Space Mono';-inkscape-font-specification:'Space Mono Bold';text-align:center;text-anchor:middle;fill:#ffffff"
           id="path4552"
           inkscape:connector-curvature="0" />
        <path
           d="m 1522.4775,25.248362 27.2292,0 0,-19.697754 q 0,-8.303955 5.6004,-13.9042968 5.6003,-5.7934572 13.9043,-5.7934572 l 39.0093,0 0,23.1738283 -28.9673,0 q -5.2141,0 -5.2141,5.7934567 l 0,10.428223 37.6574,0 0,23.173828 -37.6574,0 0,72.61133 -24.3326,0 0,-72.61133 -27.2292,0 0,-23.173828 z"
           style="font-style:normal;font-variant:normal;font-weight:bold;font-stretch:normal;font-size:193.11523438px;line-height:91.00000262%;font-family:'Space Mono';-inkscape-font-specification:'Space Mono Bold';text-align:center;text-anchor:middle;fill:#ffffff"
           id="path4554"
           inkscape:connector-curvature="0" />
        <path
           d="m 1259.0713,281.70539 0,15.06299 -91.5366,0 0,-23.17383 q 0,-9.26953 3.0898,-16.02856 3.0899,-6.95215 8.6902,-11.78003 5.7935,-5.021 13.9043,-8.30396 8.1108,-3.28295 18.346,-5.60034 17.1872,-3.8623 24.7187,-11.00757 7.7246,-7.14526 7.7246,-17.57348 l 0,-1.15869 q 0,-5.21411 -1.738,-10.23511 -1.7381,-5.021 -5.4072,-9.07642 -3.6692,-4.05542 -9.4627,-6.3728 -5.6003,-2.5105 -13.5181,-2.5105 -14.8698,0 -23.1738,9.07642 -8.1108,9.07641 -8.1108,24.1394 l 0,8.49707 -16.2217,0 0,-9.65576 q 0,-9.26953 3.0898,-17.7666 3.0899,-8.49707 9.0765,-15.06299 5.9865,-6.56592 14.8698,-10.42822 8.8833,-3.86231 20.4702,-3.86231 11.7801,0 20.4703,3.66919 8.6901,3.47608 14.4836,9.46265 5.7935,5.79346 8.4971,13.32495 2.8967,7.33838 2.8967,15.06299 l 0,3.47607 q 0,15.44922 -9.6558,26.45679 -9.6557,10.81445 -30.8984,15.44922 -18.5391,4.05542 -27.2293,10.81445 -8.6901,6.56592 -8.6901,19.31153 l 0,5.79345 75.3149,0 z"
           style="font-style:normal;font-variant:normal;font-weight:normal;font-stretch:normal;font-size:193.11523438px;line-height:91.00000262%;font-family:'Space Mono';-inkscape-font-specification:'Space Mono';text-align:center;text-anchor:middle;fill:#ffffff"
           id="path4556"
           inkscape:connector-curvature="0" />
        <path
           d="m 1283.6603,214.11506 q 0,-26.26367 12.5525,-40.74731 12.5525,-14.48365 34.9538,-14.48365 22.4014,0 34.9539,14.48365 12.5525,14.48364 12.5525,40.74731 l 0,30.12598 q 0,27.03613 -12.5525,41.13354 -12.5525,14.09741 -34.9539,14.09741 -22.4013,0 -34.9538,-14.09741 -12.5525,-14.09741 -12.5525,-41.13354 l 0,-30.12598 z m 47.5063,70.68018 q 15.6424,0 23.367,-10.81446 7.9177,-11.00756 7.9177,-30.89843 l 0,-27.8086 q 0,-9.26953 -1.9311,-16.80102 -1.9312,-7.72461 -5.9866,-13.13184 -3.8623,-5.60034 -9.8489,-8.69018 -5.7934,-3.08985 -13.5181,-3.08985 -7.9177,0 -13.7111,3.08985 -5.7935,3.08984 -9.8489,8.69018 -3.8623,5.40723 -5.7935,13.13184 -1.9311,7.53149 -1.9311,16.80102 l 0,27.8086 q 0,19.89087 7.7246,30.89843 7.9177,10.81446 23.56,10.81446 z m -12.3593,-55.61719 q 0,-5.021 3.6692,-8.69019 3.6691,-3.66919 8.6901,-3.66919 5.021,0 8.6902,3.66919 3.6692,3.66919 3.6692,8.69019 0,5.021 -3.6692,8.69018 -3.6692,3.66919 -8.6902,3.66919 -5.021,0 -8.6901,-3.66919 -3.6692,-3.66918 -3.6692,-8.69018 z"
           style="font-style:normal;font-variant:normal;font-weight:normal;font-stretch:normal;font-size:193.11523438px;line-height:91.00000262%;font-family:'Space Mono';-inkscape-font-specification:'Space Mono';text-align:center;text-anchor:middle;fill:#ffffff"
           id="path4558"
           inkscape:connector-curvature="0" />
        <path
           d="m 1442.0782,281.70539 0,-112.97241 -2.3174,0 -22.2082,50.78931 -16.0286,0 0,-1.15869 25.2981,-56.77588 31.4778,0 0,120.11767 38.2368,0 0,15.06299 -92.6953,0 0,-15.06299 38.2368,0 z"
           style="font-style:normal;font-variant:normal;font-weight:normal;font-stretch:normal;font-size:193.11523438px;line-height:91.00000262%;font-family:'Space Mono';-inkscape-font-specification:'Space Mono';text-align:center;text-anchor:middle;fill:#ffffff"
           id="path4560"
           inkscape:connector-curvature="0" />
        <path
           d="m 1522.0913,161.58772 90.3779,0 0,23.56006 -56.969,86.12939 q -4.0554,6.17969 -6.1797,10.62134 -2.1243,4.44165 -2.1243,9.07641 l 0,5.79346 -15.8354,0 0,-6.95215 q 0,-3.47607 0.5793,-6.56591 0.7725,-3.08985 2.1243,-6.17969 1.5449,-3.28296 3.6692,-6.75904 2.3174,-3.66919 5.4072,-8.30395 l 55.4241,-83.03955 0,-2.31738 -76.4736,0 0,-15.06299 z"
           style="font-style:normal;font-variant:normal;font-weight:normal;font-stretch:normal;font-size:193.11523438px;line-height:91.00000262%;font-family:'Space Mono';-inkscape-font-specification:'Space Mono';text-align:center;text-anchor:middle;fill:#ffffff"
           id="path4562"
           inkscape:connector-curvature="0" />
      </g>
      <g
         style="fill:#05ff7b;fill-opacity:1"
         transform="matrix(0,2.9484101,-2.9484101,0,752.63684,109.39762)"
         id="g4316">
        <path
           style="fill:#05ff7b;fill-opacity:1"
           inkscape:connector-curvature="0"
           d="m 37.561,52.388 c -1.037,0 -1.876,-0.161668 -1.876,-1.197668 0,-7.55 6.820332,-14.370332 14.370332,-14.370332 1.037,0 1.197668,0.839 1.197668,1.876 0,1.035 -0.160668,1.875 -1.197668,1.875 -5.481,0 -10.619332,5.137332 -10.619332,10.619332 0,1.036 -0.84,1.197668 -1.875,1.197668 z"
           id="path4318"
           sodipodi:nodetypes="sssssss" />
      </g>
      <g
         style="fill:#05ff7b;fill-opacity:1"
         transform="matrix(0,2.9484101,-2.9484101,0,752.63684,109.39762)"
         id="g4320">
        <path
           style="fill:#05ff7b;fill-opacity:1"
           inkscape:connector-curvature="0"
           d="m 30.802,52.388 c -1.035,0 -1.875,-0.161668 -1.875,-1.197668 0,-11.276 9.853332,-21.129332 21.130332,-21.129332 1.036,0 1.197668,0.84 1.197668,1.875 0,1.037 -0.161668,1.876 -1.197668,1.876 -9.208,0 -17.378332,8.169332 -17.378332,17.377332 -0.001,1.037 -0.84,1.198668 -1.877,1.198668 z"
           id="path4322"
           sodipodi:nodetypes="ssssscs" />
      </g>
    </g>
  </g>
</svg>
