<?xml version="1.0" encoding="UTF-8" standalone="no"?>
<!-- Created with Inkscape (http://www.inkscape.org/) -->

<svg
   xmlns:dc="http://purl.org/dc/elements/1.1/"
   xmlns:cc="http://creativecommons.org/ns#"
   xmlns:rdf="http://www.w3.org/1999/02/22-rdf-syntax-ns#"
   xmlns:svg="http://www.w3.org/2000/svg"
   xmlns="http://www.w3.org/2000/svg"
   xmlns:sodipodi="http://sodipodi.sourceforge.net/DTD/sodipodi-0.dtd"
   xmlns:inkscape="http://www.inkscape.org/namespaces/inkscape"
   width="517.21875"
   height="484.875"
   id="svg2"
   version="1.1"
   inkscape:version="0.48.4 r9939"
   sodipodi:docname="logo.svg">
  <defs
     id="defs4">
    <inkscape:path-effect
       effect="skeletal"
       id="path-effect4082"
       is_visible="true"
       pattern="M 0,0 0,10 10,5 z"
       copytype="single_stretched"
       prop_scale="1"
       scale_y_rel="false"
       spacing="0"
       normal_offset="0"
       tang_offset="0"
       prop_units="false"
       vertical_pattern="false"
       fuse_tolerance="0" />
    <inkscape:path-effect
       effect="skeletal"
       id="path-effect3309"
       is_visible="true"
       pattern="M 0,0 0,10 10,5 z"
       copytype="single_stretched"
       prop_scale="1"
       scale_y_rel="false"
       spacing="0"
       normal_offset="0"
       tang_offset="0"
       prop_units="false"
       vertical_pattern="false"
       fuse_tolerance="0" />
    <inkscape:path-effect
       effect="skeletal"
       id="path-effect3243"
       is_visible="true"
       pattern="M 0,0 0,10 10,5 z"
       copytype="single_stretched"
       prop_scale="1"
       scale_y_rel="false"
       spacing="0"
       normal_offset="0"
       tang_offset="0"
       prop_units="false"
       vertical_pattern="false"
       fuse_tolerance="0" />
    <inkscape:perspective
       sodipodi:type="inkscape:persp3d"
       inkscape:vp_x="0 : 526.18109 : 1"
       inkscape:vp_y="0 : 1000 : 0"
       inkscape:vp_z="1401.2373 : 726.18109 : 1"
       inkscape:persp3d-origin="372.04724 : 350.78739 : 1"
       id="perspective2987" />
  </defs>
  <sodipodi:namedview
     id="base"
     pagecolor="#ffffff"
     bordercolor="#666666"
     borderopacity="1.0"
     inkscape:pageopacity="0.0"
     inkscape:pageshadow="2"
     inkscape:zoom="0.98994948"
     inkscape:cx="200.13235"
     inkscape:cy="201.64181"
     inkscape:document-units="px"
     inkscape:current-layer="layer1"
     showgrid="false"
     inkscape:snap-global="false"
     inkscape:window-width="1366"
     inkscape:window-height="734"
     inkscape:window-x="0"
     inkscape:window-y="16"
     inkscape:window-maximized="0"
     fit-margin-top="0"
     fit-margin-left="0"
     fit-margin-right="0"
     fit-margin-bottom="0" />
  <metadata
     id="metadata7">
    <rdf:RDF>
      <cc:Work
         rdf:about="">
        <dc:format>image/svg+xml</dc:format>
        <dc:type
           rdf:resource="http://purl.org/dc/dcmitype/StillImage" />
        <dc:title />
      </cc:Work>
    </rdf:RDF>
  </metadata>
  <g
     inkscape:label="Calque 1"
     inkscape:groupmode="layer"
     id="layer1"
     transform="translate(-145.45607,-252.31825)">
    <path
       style="fill:#ed1f24;fill-opacity:0.50248754;fill-rule:evenodd;stroke:none"
       d="M 488.92482,252.31825 343.45607,353.3495 165.67482,624.06825 l 40.40625,113.125 230.3125,-44.4375 129.28125,-355.59375 -76.75,-84.84375 z"
       id="path3307"
       inkscape:connector-curvature="0" />
    <path
       style="fill:#119e5d;fill-opacity:0.79104477;fill-rule:evenodd;stroke:none"
       d="m 650.54982,329.0995 -198,12.125 -274.75,141.40625 -32.34375,117.1875 230.3125,72.71875 286.90625,-226.28125 -12.125,-117.15625 z"
       id="path4080"
       inkscape:connector-curvature="0" />
    <path
       style="fill:#323232;fill-opacity:1;fill-rule:evenodd;stroke:none"
       d="m 563.19399,334.43839 -110.65625,6.78125 -152.75,78.625 -124.40625,189.40625 200.375,63.28125 95.3125,-75.15625 94.59375,-260.21875 -2.46875,-2.71875 z"
       id="path4092"
       inkscape:connector-curvature="0" />
    <g
       style="font-size:40px;font-style:normal;font-weight:normal;line-height:86.00000142999998332%;letter-spacing:0px;word-spacing:0px;fill:#ffffff;fill-opacity:1;stroke:none;font-family:Sans"
       id="text4097">
      <path
         d="m 197.75502,442.72858 0,5.31 10.8,0 0,32.13 c 0,3.42 0.09,7.47001 -1.98,10.53 -1.53,2.25 -3.96,3.6 -6.66,3.6 -4.67999,0 -8.19,-3.87 -8.46,-4.14 -0.36,-0.54 0,-1.17 -0.54,-1.62 l -4.14,5.13 c 3.33,3.96 8.10001,6.21 13.05,6.21 5.31,0 10.17,-2.61 12.78,-7.47 2.16,-4.04999 2.16,-8.28 2.16,-12.33 l 0,-32.04 8.64,0 0,-5.31 -25.65,0"
         style="font-size:90px;font-variant:normal;font-weight:bold;font-stretch:normal;text-align:center;line-height:86.00000142999998332%;text-anchor:middle;font-family:Inconsolata;-inkscape-font-specification:Inconsolata Bold;fill:#ffffff;fill-opacity:1"
         id="path3790" />
      <path
         d="m 232.13502,442.72858 0,56.16 12.06,0 c 4.41,0 8.19,-0.18 12.15,-2.25 8.00999,-4.13999 12.42,-13.68001 12.42,-25.92 0,-10.79999 -3.24001,-20.25 -10.44,-24.93 -4.05,-2.69999 -8.1,-3.06 -13.05,-3.06 l -13.14,0 m 5.94,5.4 6.84,0 c 3.51,0 7.02,0.18001 10.53,3.06 5.22,4.32 6.93,12.33001 6.93,20.34 0,10.70999 -3.51,16.83001 -8.01,19.89 -3.51,2.34 -7.02,2.52 -10.53,2.52 l -5.76,0 0,-45.81"
         style="font-size:90px;font-variant:normal;font-weight:bold;font-stretch:normal;text-align:center;line-height:86.00000142999998332%;text-anchor:middle;font-family:Inconsolata;-inkscape-font-specification:Inconsolata Bold;fill:#ffffff;fill-opacity:1"
         id="path3792" />
      <path
         d="m 280.28502,442.72858 0,5.31 10.35,0 0,45.63 -10.98,0 0,5.22 28.98,0 0,-5.13 -11.7,0 0,-45.72 11.07,0 0,-5.31 -27.72,0"
         style="font-size:90px;font-variant:normal;font-weight:bold;font-stretch:normal;text-align:center;line-height:86.00000142999998332%;text-anchor:middle;font-family:Inconsolata;-inkscape-font-specification:Inconsolata Bold;fill:#ffffff;fill-opacity:1"
         id="path3794" />
      <path
         d="m 356.42502,449.47858 c -3.78,-4.58999 -9.36001,-7.02 -15.48,-7.02 -10.16999,0 -17.1,6.66001 -17.1,14.4 0,3.24 1.26001,7.47001 5.94,10.89 5.22,3.87 13.32,5.76001 17.55,8.46 3.69,2.25 4.68,5.22001 4.68,7.74 0,4.86 -4.14001,10.17 -12.24,10.17 -6.11999,0 -10.89,-3.06 -13.41,-6.21 -0.27,-0.36 -0.27,-0.54 -0.27,-0.9 0,-0.18 0,-0.72 -0.36,-0.9 l -3.78,6.48 c 4.41,4.77 10.71001,7.2 17.64,7.2 13.67999,0 18.72,-9.18 18.72,-16.2 0,-2.96999 -0.9,-6.84 -4.41,-10.17 -4.85999,-4.58999 -12.78,-6.21 -17.91,-9.18 -4.67999,-2.78999 -5.67,-6.12 -5.67,-8.37 0,-4.31999 3.69001,-8.19 10.08,-8.19 5.22,0 9.27,2.34001 11.43,5.49 0.27,0.36 0.18,0.54 0.18,0.9 0,0.54 0.27,0.72 0.45,0.72 l 3.96,-5.31"
         style="font-size:90px;font-variant:normal;font-weight:bold;font-stretch:normal;text-align:center;line-height:86.00000142999998332%;text-anchor:middle;font-family:Inconsolata;-inkscape-font-specification:Inconsolata Bold;fill:#ffffff;fill-opacity:1"
         id="path3796" />
      <path
         d="m 387.29502,442.27858 c -8.72999,0 -21.33,6.39003 -21.33,28.89 0,21.59998 12.06001,28.62 21.33,28.62 6.65999,0 12.87,-3.51 16.38,-9.27 l -4.59,-2.97 c -2.61,4.23 -7.11,6.75 -11.43,6.75 -8.27999,0 -15.57,-8.55001 -15.57,-23.76 0,-14.84998 7.11001,-23.22 15.03,-23.22 4.32,0 8.46,2.61001 10.71,6.57 0.18,0.27 0.36,0.54 0.36,0.9 0,0.27 -0.09,0.45 -0.09,0.72 0,0.09 0,0.54 0.45,0.81 l 5.94,-2.88 c -2.97,-6.74999 -9.72001,-11.16 -17.19,-11.16"
         style="font-size:90px;font-variant:normal;font-weight:bold;font-stretch:normal;text-align:center;line-height:86.00000142999998332%;text-anchor:middle;font-family:Inconsolata;-inkscape-font-specification:Inconsolata Bold;fill:#ffffff;fill-opacity:1"
         id="path3798" />
      <path
         d="m 448.76502,478.45858 c 0,-14.21998 -9.00001,-21.6 -18.36,-21.6 -10.43999,0 -19.44,9.00002 -19.44,21.78 0,12.50999 8.91001,21.33 19.26,21.33 9.71999,0 18.54,-7.83001 18.54,-21.51 m -18.81,-16.11 c 5.93999,0 12.24,5.13002 12.24,16.38 0,10.34999 -5.94001,15.57 -11.88,15.57 -6.56999,0 -12.51,-6.12001 -12.51,-16.29 0,-10.07999 5.85001,-15.66 12.15,-15.66"
         style="font-size:90px;font-variant:normal;font-weight:bold;font-stretch:normal;text-align:center;line-height:86.00000142999998332%;text-anchor:middle;font-family:Inconsolata;-inkscape-font-specification:Inconsolata Bold;fill:#ffffff;fill-opacity:1"
         id="path3800" />
      <path
         d="m 458.48502,498.79858 6.57,0 0,-23.67 c 0,-2.69999 0.36,-4.77 2.07,-7.02 1.53,-2.06999 5.49001,-5.76 9.81,-5.76 2.07,0 4.14,0.90001 5.58,2.61 2.25,2.7 2.25,6.21001 2.25,9.09 l 0,24.75 6.39,0 0,-24.93 c 0,-3.14999 0,-6.57 -1.44,-9.9 -2.07,-4.58999 -6.3,-7.2 -10.98,-7.2 -5.57999,0 -10.62,3.60001 -13.68,8.19 l 0,-7.2 -6.57,0 0,41.04"
         style="font-size:90px;font-variant:normal;font-weight:bold;font-stretch:normal;text-align:center;line-height:86.00000142999998332%;text-anchor:middle;font-family:Inconsolata;-inkscape-font-specification:Inconsolata Bold;fill:#ffffff;fill-opacity:1"
         id="path3802" />
      <path
         d="m 528.23502,438.49858 c -5.75999,0 -11.16,2.43001 -14.04,7.11 -2.16,3.42 -2.25,6.84001 -2.25,10.53 l 0,4.05 -9,0 0,5.13 9,0 0,33.48 6.21,0 0,-33.48 13.41,0 0,-5.13 -13.41,0 0,-3.24 c 0,-2.96999 -0.09,-6.12 1.44,-8.82 1.71,-3.05999 4.95,-4.59 8.28,-4.59 3.96,0 7.29,2.07001 9,4.68 0.27,0.45 0.27,0.72 0.27,1.08 0,0.63 0.45,0.81 0.72,0.81 l 2.97,-6.03 c -2.97,-3.50999 -7.47,-5.58 -12.6,-5.58"
         style="font-size:90px;font-variant:normal;font-weight:bold;font-stretch:normal;text-align:center;line-height:86.00000142999998332%;text-anchor:middle;font-family:Inconsolata;-inkscape-font-specification:Inconsolata Bold;fill:#ffffff;fill-opacity:1"
         id="path3804" />
      <path
         d="m 190.91503,538.31131 8.415,6.765 c 0.99,-1.485 0.495,-2.475 1.485,-3.795 2.475,-3.79499 8.58001,-9.405 17.49,-9.405 11.05499,0 19.8,8.41501 19.8,19.47 0,12.53999 -10.56001,21.61501 -17.985,28.38 -11.71499,10.55999 -21.28501,21.12002 -29.865,38.115 l 0,7.26 60.39,0 0,-11.385 c -1.155,-0.495 -1.98,0.33 -2.31,0.66 -0.66,0.66 -0.99,0.66 -1.65,0.66 l -43.23,0 c 8.57999,-14.84998 20.62501,-25.08 28.05,-32.01 7.42499,-7.09499 17.985,-17.65501 17.985,-32.505 0,-16.00498 -13.03502,-28.875 -29.7,-28.875 -11.71499,0 -22.77001,6.27001 -28.875,16.665"
         style="font-size:165px;font-variant:normal;font-weight:bold;font-stretch:normal;text-align:center;line-height:86.00000142999998332%;letter-spacing:11.12999343999999979px;text-anchor:middle;font-family:Inconsolata;-inkscape-font-specification:Inconsolata Bold;fill:#ffffff;fill-opacity:1"
         id="path3806" />
      <path
         d="m 313.25502,521.64631 c -16.33498,0 -33.165,20.13004 -33.165,52.965 0,33.32997 16.99502,52.47 33.33,52.47 14.84999,0 32.505,-16.17003 32.505,-51.645 0,-34.97996 -16.83001,-53.79 -32.67,-53.79 m 16.005,23.595 -36.135,46.86 c -1.485,-5.77499 -2.31,-12.21 -2.31,-19.47 0,-26.39997 12.04501,-40.92 22.275,-40.92 5.61,0 11.71501,4.45501 16.17,13.53 m 3.795,10.89 c 1.485,5.775 2.145,12.70501 2.145,20.79 0,28.70997 -12.37501,39.6 -21.45,39.6 -6.10499,0 -12.375,-4.95001 -16.83,-14.025 l 36.135,-46.365"
         style="font-size:165px;font-variant:normal;font-weight:bold;font-stretch:normal;text-align:center;line-height:86.00000142999998332%;letter-spacing:11.12999343999999979px;text-anchor:middle;font-family:Inconsolata;-inkscape-font-specification:Inconsolata Bold;fill:#ffffff;fill-opacity:1"
         id="path3808" />
      <path
         d="m 414.80501,522.30631 -7.92,0 -26.895,14.025 2.64,6.435 20.625,-6.105 0,88.605 11.55,0 0,-102.96"
         style="font-size:165px;font-variant:normal;font-weight:bold;font-stretch:normal;text-align:center;line-height:86.00000142999998332%;letter-spacing:11.12999343999999979px;text-anchor:middle;font-family:Inconsolata;-inkscape-font-specification:Inconsolata Bold;fill:#ffffff;fill-opacity:1"
         id="path3810" />
      <path
         d="m 506.455,521.15131 c -12.37499,0 -25.57501,7.59002 -32.01,25.575 -3.465,9.73499 -4.29,21.78001 -4.29,31.68 0,12.04499 1.15501,24.91501 7.755,34.815 5.94,9.07499 15.18001,13.695 24.255,13.695 15.67499,0 29.37,-13.20002 29.37,-34.485 0,-21.28498 -13.69501,-33.66 -28.215,-33.66 -8.90999,0 -17.325,4.78501 -21.78,12.375 0.66,-35.14496 17.49001,-39.765 24.915,-39.765 6.76499,0 11.385,3.63 12.045,4.29 0.99,1.155 0.99,2.64 2.475,3.795 l 7.92,-8.91 c -5.93999,-5.93999 -14.19001,-9.405 -22.44,-9.405 m -4.29,47.85 c 8.24999,0 18.15,6.43502 18.15,24.09 0,16.00499 -8.91001,23.595 -17.655,23.595 -12.53999,0 -21.945,-14.68502 -20.625,-33.99 4.62,-8.41499 12.54001,-13.695 20.13,-13.695"
         style="font-size:165px;font-variant:normal;font-weight:bold;font-stretch:normal;text-align:center;line-height:86.00000142999998332%;letter-spacing:11.12999343999999979px;text-anchor:middle;font-family:Inconsolata;-inkscape-font-specification:Inconsolata Bold;fill:#ffffff;fill-opacity:1"
         id="path3812" />
    </g>
    <path
       style="fill:#ffffff;fill-opacity:1"
       d="m 484.19279,730.49249 c -2.58934,-0.48824 -4.84106,-1.39502 -6.84722,-2.75737 -1.20743,-0.81994 -1.36608,-0.95147 -2.51991,-2.08897 -0.95612,-0.9426 -1.15122,-1.16305 -2.07228,-2.34143 -0.67042,-0.85777 -1.88894,-3.32932 -2.34705,-4.76061 -1.20531,-3.76577 -1.07119,-8.39631 0.34461,-11.89959 0.43632,-1.07957 1.638,-3.30209 1.99094,-3.6822 0.103,-0.111 0.36243,-0.43662 0.57646,-0.72369 0.39126,-0.52474 2.34039,-2.50303 2.91035,-2.95384 4.52143,-3.57635 10.96146,-4.7019 16.44403,-2.87399 1.20834,0.40286 3.94934,1.7551 4.2698,2.10644 0.043,0.0471 0.32462,0.2571 0.62577,0.4665 0.9544,0.66365 2.65945,2.2137 2.65945,2.41772 0,0.0683 0.12053,0.21243 0.26786,0.32016 0.22646,0.16563 0.23561,0.23474 0.0592,0.44746 -0.11488,0.13839 -0.28133,0.25159 -0.36999,0.25159 -0.16246,0 -6.30251,2.38147 -6.95814,2.69875 -0.28943,0.14007 -0.41547,0.11219 -0.70396,-0.15556 -0.99428,-0.92285 -3.43663,-1.87028 -5.20953,-2.02087 -3.02753,-0.25716 -6.86854,1.49251 -8.46938,3.85796 -1.28425,1.89769 -1.6546,3.12279 -1.65513,5.47536 -4.3e-4,1.91784 0.33801,3.53449 1.04954,5.01337 1.3371,2.77913 3.71306,4.91681 6.34579,5.70942 1.41124,0.42485 4.06464,0.42477 5.47536,-1.6e-4 3.07397,-0.92594 5.13705,-2.83594 6.23606,-5.77329 0.34971,-0.9347 0.62014,-2.91563 0.39803,-2.91563 -0.13751,0 -1.61655,0.57769 -5.63185,2.19974 l -2.20477,0.89067 -0.20008,-0.56747 c -0.41164,-1.16736 -1.29778,-3.39908 -1.52199,-3.83302 -0.32096,-0.62123 -0.21813,-0.69329 2.37707,-1.66583 1.20458,-0.4514 2.47173,-0.94357 2.8159,-1.09369 0.34416,-0.15013 1.9281,-0.7805 3.51987,-1.4008 1.59175,-0.6203 3.0349,-1.1856 3.20698,-1.25619 0.96595,-0.39631 4.00219,-1.56467 4.0661,-1.56467 0.10761,0 0.52567,1.01667 0.86835,2.11191 0.27089,0.86577 0.70034,3.11003 0.8083,4.22385 0.0358,0.36958 0.14018,0.17009 0.49106,-0.93863 0.53915,-1.70358 1.75924,-4.12362 2.5633,-5.08426 4.73955,-5.66256 11.92102,-7.33578 18.42322,-4.29245 2.56549,1.20078 5.22432,3.68978 6.62524,6.2021 0.4322,0.7751 1.36807,3.05782 1.49392,3.64393 l 0.10085,0.46931 -2.78025,1.07754 c -1.52913,0.59263 -3.34342,1.30989 -4.03175,1.59386 -1.07808,0.44476 -4.54234,1.80491 -11.77101,4.62159 -1.04011,0.40529 -1.75936,0.77234 -1.75994,0.89818 -4.5e-4,0.11699 0.31374,0.52308 0.69841,0.90231 3.22635,3.18069 8.74623,2.64427 11.34018,-1.10204 0.35064,-0.50641 0.64843,-0.71545 1.43666,-1.00846 0.54688,-0.2033 3.28225,-1.27136 6.07858,-2.37346 7.14464,-2.81585 9.15077,-3.59266 9.27823,-3.59266 0.0609,0 0.0928,3.64307 0.0703,8.09569 l -0.0405,8.0957 -4.18266,0.0417 -4.18269,0.0417 -0.0412,-5.36058 -0.0412,-5.36057 -0.37406,1.09508 c -0.86284,2.52593 -2.09141,4.53682 -3.8319,6.272 -4.09088,4.07838 -9.96061,5.46954 -15.42709,3.65633 -1.14178,-0.37872 -3.27644,-1.45992 -3.74591,-1.89729 -0.16962,-0.15804 -0.34716,-0.28733 -0.39452,-0.28733 -0.0474,0 -0.30922,-0.1936 -0.58192,-0.4302 -3.31738,-2.87854 -4.90575,-5.87619 -5.53309,-10.44229 l -0.1075,-0.78219 -0.22457,0.78219 c -0.84567,2.94549 -1.29388,4.02763 -2.33252,5.63179 -1.35308,2.08976 -3.1449,3.93406 -5.13401,5.28436 -0.62446,0.42392 -2.9863,1.60489 -3.92562,1.96291 -2.18857,0.83413 -6.34825,1.17707 -8.76056,0.72219 z m 31.90639,-16.66414 c 1.98284,-0.78114 4.78432,-1.8861 6.22552,-2.45543 1.44117,-0.56933 2.62035,-1.09989 2.62035,-1.17898 0,-0.31825 -1.241,-1.27322 -2.34477,-1.80436 -1.04577,-0.50322 -1.33441,-0.57026 -2.68996,-0.62471 -2.35755,-0.0947 -4.16559,0.55183 -5.76508,2.06145 -0.78457,0.7405 -1.58825,2.22044 -1.87114,3.44563 -0.21381,0.92604 -0.19712,1.97669 0.0314,1.97669 0.10365,0 1.81081,-0.63914 3.79365,-1.42029 z m 56.93594,16.60682 c -0.7825,-0.16256 -1.97924,-0.52626 -2.65946,-0.80822 -1.20948,-0.50141 -3.37545,-1.7719 -3.479,-2.04073 -0.0288,-0.0744 -0.11979,-0.13537 -0.20249,-0.13537 -0.29325,0 -2.42372,-2.28476 -3.13629,-3.36343 -1.15061,-1.74177 -1.60614,-2.8068 -2.44231,-5.70999 -0.11348,-0.39404 -0.1622,1.10818 -0.17368,5.35799 l -0.0159,5.90557 -4.22382,0 -4.22385,0 0,-8.81025 c 0,-8.18997 -0.0211,-8.89089 -0.30073,-9.95566 -0.38232,-1.45627 -0.99334,-2.30659 -2.0674,-2.87711 -0.79884,-0.42434 -0.9135,-0.44205 -2.40325,-0.3713 -1.34383,0.0637 -1.75186,0.15308 -2.89412,0.6332 -1.90576,0.80105 -7.5287,3.03329 -8.9561,3.55551 l -1.21241,0.44353 0,-5.46665 0,-5.46665 3.91098,0 3.91097,0 0,1.48616 c 0,0.8739 0.0637,1.48617 0.15446,1.48617 0.0851,0 0.32523,-0.26399 0.53394,-0.58665 0.48882,-0.75573 1.63831,-1.91637 1.89797,-1.91637 0.0439,0 0.34228,-0.17238 0.66308,-0.38306 0.3208,-0.21067 1.14481,-0.5361 1.8311,-0.72318 1.08232,-0.29501 1.51806,-0.32944 3.28522,-0.25965 3.15529,0.12464 4.97469,0.88029 6.91671,2.8727 1.09409,1.12247 2.39507,3.27384 2.39507,3.96058 0,0.14778 0.0518,0.32039 0.11487,0.38358 0.23338,0.23339 0.50545,1.94759 0.61075,3.84822 l 0.10832,1.95548 0.22627,-0.8604 c 1.0422,-3.96292 2.9541,-6.89618 5.97946,-9.17361 1.37755,-1.03701 3.38031,-1.96431 5.39713,-2.49893 1.55082,-0.4111 5.33849,-0.41018 6.88329,0.002 5.37789,1.43373 9.70905,5.59557 11.05316,10.62107 0.10843,0.40531 0.23529,0.73696 0.28198,0.73696 0.0466,10e-6 0.0648,-3.38651 0.0404,-7.5256 -0.0304,-5.15804 0.009,-7.58881 0.12215,-7.72646 0.0917,-0.11043 0.6045,-0.36087 1.13959,-0.55647 0.53511,-0.19559 1.04332,-0.40348 1.12937,-0.46194 0.086,-0.0585 1.2828,-0.5503 2.65946,-1.09299 1.37666,-0.54267 2.5699,-1.04655 2.65164,-1.11972 0.0817,-0.0731 0.27532,-0.13302 0.4302,-0.13302 0.26348,0 0.28158,0.24624 0.28158,3.83273 l 0,3.83275 3.28521,0 3.28521,0 0,2.58459 0,2.58459 -0.4302,0.17256 c -0.23662,0.0949 -0.6062,0.24362 -0.82131,0.33045 -0.21509,0.0869 -0.56708,0.2283 -0.78219,0.31434 -0.2151,0.086 -0.53188,0.21312 -0.70397,0.2824 -1.16204,0.46785 -5.89097,2.29888 -7.11794,2.75608 -0.8174,0.30457 -1.55658,0.60839 -1.64262,0.67517 -0.086,0.0668 -0.47322,0.22862 -0.86043,0.35965 -0.38717,0.13105 -2.6047,0.98882 -4.9278,1.90623 -2.32311,0.91739 -4.64623,1.83261 -5.16247,2.03382 -1.8436,0.71855 -7.09016,2.78253 -10.04249,3.95061 -2.84521,1.12572 -2.9937,1.20499 -2.83017,1.51056 0.0949,0.17737 0.33779,0.45242 0.5397,0.61126 0.2019,0.15881 0.4547,0.37365 0.56179,0.47743 0.93406,0.90515 3.02353,1.66453 4.58,1.66453 2.603,0 4.88013,-1.18311 6.37461,-3.31207 0.17451,-0.24856 0.70032,-0.55611 1.40795,-0.82346 0.6212,-0.2347 1.27022,-0.48759 1.4423,-0.56197 0.17208,-0.0744 1.15765,-0.46237 2.19014,-0.86215 1.03251,-0.39979 2.08845,-0.81913 2.34659,-0.93188 0.25813,-0.11276 1.94767,-0.77975 3.75453,-1.48223 1.80686,-0.70249 3.42599,-1.34067 3.59809,-1.41818 0.17207,-0.0776 0.68246,-0.27718 1.13417,-0.44372 l 0.8213,-0.30278 0,8.11978 0,8.11978 -4.12738,0 -4.1274,0 -0.0852,-0.4302 c -0.0468,-0.23662 -0.0662,-2.59494 -0.043,-5.2407 0.023,-2.64576 -0.005,-4.8105 -0.0609,-4.8105 -0.0568,0 -0.26751,0.5104 -0.46852,1.1342 -1.02169,3.1709 -3.108,5.93498 -5.95269,7.88646 -1.37476,0.94312 -3.08856,1.69254 -5.00249,2.18755 -1.4582,0.37712 -4.69416,0.41146 -6.35055,0.0675 z m -2.39138,-15.82924 c 1.06527,-0.43954 2.00726,-0.81252 2.0933,-0.82884 0.0859,-0.0162 0.33243,-0.12618 0.54753,-0.24411 0.2151,-0.11798 0.4263,-0.21154 0.46932,-0.20795 0.16606,0.0138 1.04178,-0.31301 1.60136,-0.59767 0.14941,-0.076 0.34378,-0.13817 0.43192,-0.13817 0.0882,0 0.45869,-0.13535 0.82344,-0.30076 0.36473,-0.16542 1.53347,-0.63799 2.5972,-1.05015 1.06374,-0.41217 1.9684,-0.83889 2.01037,-0.94826 0.21524,-0.5609 -2.40372,-2.23092 -3.86622,-2.46538 -2.02762,-0.32502 -2.77428,-0.25442 -4.5367,0.42908 -2.03655,0.7898 -3.57116,2.43527 -4.18926,4.4919 -0.26951,0.89679 -0.34593,2.65946 -0.11522,2.65946 0.10784,0 1.06774,-0.35963 2.13302,-0.79915 z m 45.42679,16.01956 c -2.18892,-0.29707 -4.8257,-1.31207 -6.64864,-2.55926 -0.98046,-0.67078 -2.55475,-2.16533 -3.22369,-3.06035 -0.24894,-0.33307 -0.54061,-0.69861 -0.64816,-0.81229 -0.10761,-0.11371 -0.19556,-0.26708 -0.19556,-0.34082 0,-0.0736 -0.091,-0.22713 -0.20222,-0.34082 -0.26141,-0.26723 -1.10064,-2.02852 -1.42155,-2.98337 -0.56341,-1.67642 -0.78241,-3.03444 -0.78842,-4.88884 -0.006,-1.88094 0.12573,-2.71834 0.72638,-4.61494 0.31793,-1.00395 1.46085,-3.44632 1.68373,-3.59811 0.0633,-0.043 0.22456,-0.29243 0.35864,-0.55427 0.13408,-0.26184 0.79508,-1.03051 1.46889,-1.70816 2.9224,-2.939 6.82506,-4.6209 10.72217,-4.62083 3.0278,7e-5 5.96326,0.88297 8.49337,2.55454 1.177,0.77761 3.25447,2.85929 4.08586,4.09408 1.04771,1.55608 2.00883,3.76287 2.13247,4.89629 0.0448,0.41002 0.24407,0.32057 -7.39161,3.31657 -2.45217,0.96216 -4.5993,1.80848 -4.77139,1.88073 -0.52066,0.21859 -6.35521,2.50797 -7.23529,2.83902 -0.4517,0.16991 -0.82129,0.37979 -0.82129,0.4664 0,0.15225 0.85938,1.03619 1.52042,1.56386 0.1775,0.14171 0.80459,0.48761 1.39351,0.76867 0.91555,0.43695 1.28647,0.52127 2.55916,0.58172 1.3088,0.0621 1.63696,0.0207 2.71903,-0.34345 1.711,-0.57587 2.70116,-1.27347 3.80205,-2.67872 0.45089,-0.57554 0.75812,-0.73506 3.44122,-1.78671 1.62037,-0.63509 3.26294,-1.29337 3.65013,-1.4628 0.38718,-0.16943 0.87995,-0.36078 1.09505,-0.42524 0.21512,-0.0645 1.9199,-0.72335 3.78841,-1.46421 1.86851,-0.74089 3.43485,-1.34704 3.48075,-1.34704 0.0459,0 0.0834,0.27538 0.0834,0.61197 0,1.06286 0.42337,2.86973 0.92666,3.95467 1.5395,3.3188 4.33637,5.14591 7.55663,4.93649 2.27539,-0.14799 4.13945,-1.0974 5.544,-2.82368 0.3841,-0.47209 0.98735,-1.83129 1.08566,-2.44615 0.0564,-0.35319 0.14624,-0.66855 0.19947,-0.70083 0.12179,-0.0738 7.01841,1.06864 7.13108,1.18132 0.24238,0.24239 -1.47156,4.6018 -1.96003,4.9854 -0.0547,0.043 -0.18625,0.24262 -0.29213,0.44358 -0.3235,0.61392 -2.09895,2.52568 -3.08145,3.31805 -4.48541,3.61735 -11.16791,4.27739 -16.22678,1.6027 -3.66243,-1.93636 -6.18715,-4.93867 -7.53672,-8.96242 l -0.44599,-1.32972 -0.21579,0.78217 c -0.11866,0.43022 -0.30906,0.9934 -0.42308,1.25152 -1.03456,2.34194 -1.49383,3.13698 -2.5616,4.4342 -0.80512,0.97817 -0.97842,1.15166 -1.90215,1.90441 -0.47322,0.38562 -0.98234,0.8108 -1.1314,0.94484 -0.38722,0.34821 -2.74411,1.50607 -3.82144,1.87734 -1.84243,0.63493 -4.77152,0.92449 -6.70182,0.66249 z m 0.90087,-17.741 c 3.24881,-1.28095 5.97255,-2.329 6.05277,-2.329 0.62755,0 -0.0901,-0.92304 -1.33095,-1.71174 -1.28804,-0.81872 -2.67624,-1.15861 -4.34915,-1.06488 -2.36423,0.13251 -4.05528,0.9703 -5.45919,2.70464 -0.91368,1.12876 -1.36799,2.29384 -1.4839,3.80553 l -0.0884,1.15233 0.37594,-0.11394 c 0.20677,-0.0627 3.03406,-1.16197 6.28285,-2.44294 z m 16.09871,-1.1166 c 0.0883,-0.27964 0.19737,-0.66788 0.24241,-0.86272 0.0451,-0.19487 0.14383,-0.39263 0.21959,-0.43945 0.0757,-0.0467 0.13775,-0.18733 0.13775,-0.31227 0,-0.40622 0.66329,-1.6825 1.53906,-2.9614 0.77231,-1.12784 2.84042,-3.35891 3.12053,-3.36643 0.0615,-0.002 0.38024,-0.23734 0.70835,-0.52378 1.18361,-1.03325 3.94348,-2.17291 6.27638,-2.59177 3.71106,-0.66629 8.24394,0.45172 11.37547,2.80567 0.74143,0.55733 2.51105,2.32036 3.0192,3.00796 0.82018,1.10983 1.50459,2.36316 1.36608,2.50168 -0.0757,0.0757 -1.24189,0.55432 -2.59181,1.06389 -1.34992,0.50957 -2.68051,1.02422 -2.9569,1.14368 -1.35917,0.5875 -1.36717,0.58911 -1.47408,0.29932 -0.0554,-0.15004 -0.14436,-0.30801 -0.19781,-0.35104 -0.0534,-0.043 -0.26698,-0.32462 -0.47451,-0.62574 -1.45871,-2.11666 -4.34301,-3.47906 -6.79367,-3.209 -0.9323,0.10267 -2.59779,0.58982 -3.76461,1.10097 -0.34416,0.15077 -0.78416,0.33477 -0.97776,0.40888 -0.19357,0.0741 -0.54558,0.21457 -0.78218,0.31212 -0.61609,0.25401 -0.92871,0.37705 -2.0728,0.81586 -0.55928,0.21451 -2.09785,0.81795 -3.41908,1.341 -1.32121,0.52303 -2.46024,0.95099 -2.53121,0.95099 -0.071,0 -0.0568,-0.22879 0.0315,-0.50842 z"
       id="path3012"
       inkscape:connector-curvature="0" />
    <g
       style="font-size:21.94983864px;font-style:normal;font-variant:normal;font-weight:normal;font-stretch:normal;line-height:125%;letter-spacing:0px;word-spacing:0px;fill:#ffffff;fill-opacity:1;stroke:none;font-family:SquareFont Outline;-inkscape-font-specification:SquareFont Outline"
       id="text4007">
      <path
         d="m 473.68804,672.96887 0,13.67475 1.60234,0 0,-6.03621 2.67788,0 c 0.85604,0 1.66819,-0.0219 2.50228,-0.439 1.27309,-0.63654 1.93158,-1.95353 1.93158,-3.33637 0,-1.38284 -0.65849,-2.72178 -1.95353,-3.38028 -0.85604,-0.46094 -1.71209,-0.48289 -2.59008,-0.48289 l -4.17047,0 m 1.60234,1.44869 2.56813,0 c 0.57069,0 1.11944,0.022 1.69014,0.28534 0.83409,0.439 1.29504,1.31699 1.29504,2.19499 0,0.87799 -0.439,1.69014 -1.2292,2.08523 -0.52679,0.2634 -1.05359,0.28535 -1.58038,0.28535 l -2.76568,0 0.022,-4.85091"
         style="letter-spacing:-0.67495751px;fill:#ffffff;font-family:Inconsolata;-inkscape-font-specification:Inconsolata"
         id="path4035" />
      <path
         d="m 484.88794,676.63449 0,10.03108 1.58039,0 0,-4.87287 c 0,-0.61459 0.022,-1.27309 0.7024,-2.34863 0.92189,-1.44869 2.10718,-1.69014 2.83153,-1.69014 0.83409,0 1.36089,0.3951 1.64623,0.7463 0.1317,0.17559 0.19755,0.35119 0.37315,0.50484 l 0.7463,-1.51454 c -0.63655,-0.65849 -1.55844,-1.09749 -2.67788,-1.09749 -1.47064,0 -2.96323,0.7463 -3.62173,2.17304 l 0.0659,-1.93159 -1.64624,0"
         style="letter-spacing:-0.67495751px;fill:#ffffff;font-family:Inconsolata;-inkscape-font-specification:Inconsolata"
         id="path4037" />
      <path
         d="m 503.1118,681.68295 c 0,-3.46807 -2.19499,-5.26796 -4.47777,-5.26796 -2.54618,0 -4.74116,2.19499 -4.74116,5.31186 0,3.05103 2.17303,5.20211 4.69726,5.20211 2.37058,0 4.52167,-1.90964 4.52167,-5.24601 m -4.58752,-3.92902 c 1.44869,0 2.98518,1.25114 2.98518,3.99487 0,2.52423 -1.44869,3.79732 -2.89738,3.79732 -1.60234,0 -3.05103,-1.49259 -3.05103,-3.97292 0,-2.45838 1.42674,-3.81927 2.96323,-3.81927"
         style="letter-spacing:-0.67495751px;fill:#ffffff;font-family:Inconsolata;-inkscape-font-specification:Inconsolata"
         id="path4039" />
      <path
         d="m 504.60987,676.63449 0.022,13.67475 1.60234,0 0,-4.98261 c 0.68045,0.98774 1.79989,1.60233 3.00713,1.60233 2.06328,0 4.21437,-1.73404 4.21437,-5.39966 0,-3.53392 -2.08524,-5.11431 -4.06072,-5.11431 -1.29504,0 -2.50228,0.6585 -3.18273,1.75599 l 0,-1.53649 -1.60234,0 m 4.19242,1.11944 c 0.878,0 3.00713,0.46095 3.00713,4.10462 0,3.16077 -2.06329,3.66562 -3.00713,3.66562 -0.94384,0 -1.90963,-0.48289 -2.30473,-1.38284 -0.28535,-0.68044 -0.28535,-1.51454 -0.28535,-2.96322 0,-0.8341 0.0439,-1.44869 0.2634,-1.97549 0.3951,-0.89994 1.31699,-1.44869 2.32668,-1.44869"
         style="letter-spacing:-0.67495751px;fill:#ffffff;font-family:Inconsolata;-inkscape-font-specification:Inconsolata"
         id="path4041" />
      <path
         d="m 514.97569,676.63449 0,5.59721 c 0,0.85604 0,1.73404 0.39509,2.63398 0.5707,1.31699 1.79989,2.04133 3.11688,2.04133 1.25114,0 2.43643,-0.68044 3.09493,-1.77793 l -0.0219,0.74629 c 0,0.2634 0,0.5268 0.0439,0.76825 l 1.66818,0 c -0.10974,-0.28535 -0.13169,-0.6146 -0.13169,-0.89995 l 0,-9.10918 -1.58039,0 0,5.50941 c 0,0.76824 -0.0659,1.36089 -0.3951,1.97548 -0.46095,0.85605 -1.36089,1.49259 -2.32668,1.49259 -0.76825,0 -1.51454,-0.43899 -1.90964,-1.22919 -0.3512,-0.70239 -0.3512,-1.49259 -0.3512,-2.15108 l 0,-5.59721 -1.60233,0"
         style="letter-spacing:-0.67495751px;fill:#ffffff;font-family:Inconsolata;-inkscape-font-specification:Inconsolata"
         id="path4043" />
      <path
         d="m 525.75854,672.06892 0,1.27309 2.85348,0 0,12.05046 -2.98518,0 0,1.25115 7.5288,0 0,-1.25115 -2.96323,0 0,-13.32355 -4.43387,0"
         style="letter-spacing:-0.67495751px;fill:#ffffff;font-family:Inconsolata;-inkscape-font-specification:Inconsolata"
         id="path4045" />
      <path
         d="m 543.69705,677.95148 c -0.92189,-1.00969 -2.26084,-1.55844 -3.75342,-1.55844 -2.32668,0 -3.84123,1.29504 -3.84123,2.78763 0,1.75599 1.88769,2.39253 2.43644,2.59008 0.85604,0.3073 1.95353,0.5707 2.69983,0.92189 0.83409,0.3951 0.98774,0.9219 0.98774,1.2731 0,0.94384 -1.14139,1.58038 -2.56813,1.58038 -1.71209,0 -2.80958,-1.03164 -3.13883,-1.38284 -0.0658,-0.0878 -0.0658,-0.15365 -0.0658,-0.24144 0,-0.0219 0.0219,-0.15365 -0.0878,-0.19755 l -0.92189,1.55844 c 1.18529,1.09749 2.72178,1.60233 4.23632,1.60233 2.74372,0 4.17047,-1.62429 4.17047,-3.13882 0,-0.68045 -0.28535,-1.60234 -1.47064,-2.26084 -1.11944,-0.63654 -2.74373,-0.85604 -3.68758,-1.31699 -0.81214,-0.39509 -0.98774,-0.87799 -0.98774,-1.22919 0,-0.79019 0.98775,-1.36089 2.10719,-1.36089 1.44868,0 2.41448,0.878 2.78763,1.38284 0.0658,0.0658 0.0439,0.1317 0.0439,0.19755 0,0.1317 0.0878,0.1756 0.13169,0.1756 l 0.9219,-1.38284"
         style="letter-spacing:-0.67495751px;fill:#ffffff;font-family:Inconsolata;-inkscape-font-specification:Inconsolata"
         id="path4047" />
      <path
         d="m 550.90208,671.30068 -1.93158,3.22662 1.09749,0.6585 2.21693,-2.94128 -1.38284,-0.94384 m -0.72434,5.09236 c -2.39253,0 -4.60947,1.71209 -4.60947,5.35576 0,3.35832 2.08524,5.13626 4.80702,5.13626 1.44868,0 2.74373,-0.52679 3.59977,-1.55843 l -0.87799,-0.85605 c -0.63655,0.7463 -1.60234,1.14139 -2.59009,1.14139 -1.33893,0 -3.29247,-0.74629 -3.40222,-3.75342 l 7.11175,0 c 0.0659,-0.68044 0.0439,-1.33894 -0.0658,-1.90964 -0.46095,-2.69982 -2.32669,-3.55587 -3.97292,-3.55587 m -3.02908,4.25827 c 0.32925,-2.37058 1.84379,-3.05103 2.91933,-3.05103 1.62428,0 2.78763,1.42674 2.59008,3.05103 l -5.50941,0"
         style="letter-spacing:-0.67495751px;fill:#ffffff;font-family:Inconsolata;-inkscape-font-specification:Inconsolata"
         id="path4049" />
      <path
         d="m 560.4777,676.39304 c -2.39253,0 -4.60946,1.71209 -4.60946,5.35576 0,3.35832 2.08523,5.13626 4.80701,5.13626 1.44869,0 2.74373,-0.52679 3.59977,-1.55843 l -0.87799,-0.85605 c -0.63654,0.7463 -1.60234,1.14139 -2.59008,1.14139 -1.33894,0 -3.29248,-0.74629 -3.40223,-3.75342 l 7.11175,0 c 0.0658,-0.68044 0.0439,-1.33894 -0.0659,-1.90964 -0.46094,-2.69982 -2.32668,-3.55587 -3.97292,-3.55587 m -3.02908,4.25827 c 0.32925,-2.37058 1.84379,-3.05103 2.91933,-3.05103 1.62429,0 2.78763,1.42674 2.59008,3.05103 l -5.50941,0"
         style="letter-spacing:-0.67495751px;fill:#ffffff;font-family:Inconsolata;-inkscape-font-specification:Inconsolata"
         id="path4051" />
      <path
         d="m 576.70961,676.63449 0.0219,13.67475 1.60233,0 0,-4.98261 c 0.68045,0.98774 1.79989,1.60233 3.00713,1.60233 2.06329,0 4.21437,-1.73404 4.21437,-5.39966 0,-3.53392 -2.08524,-5.11431 -4.06072,-5.11431 -1.29504,0 -2.50228,0.6585 -3.18273,1.75599 l 0,-1.53649 -1.60233,0 m 4.19242,1.11944 c 0.87799,0 3.00712,0.46095 3.00712,4.10462 0,3.16077 -2.06328,3.66562 -3.00712,3.66562 -0.94385,0 -1.90964,-0.48289 -2.30474,-1.38284 -0.28534,-0.68044 -0.28535,-1.51454 -0.28535,-2.96322 0,-0.8341 0.0439,-1.44869 0.2634,-1.97549 0.3951,-0.89994 1.31699,-1.44869 2.32669,-1.44869"
         style="letter-spacing:-0.67495751px;fill:#ffffff;font-family:Inconsolata;-inkscape-font-specification:Inconsolata"
         id="path4053" />
      <path
         d="m 587.69002,677.79783 0.76824,1.00969 c 0.83409,-0.85604 1.95354,-1.11944 2.89738,-1.11944 1.18529,0 1.77794,0.50485 2.06328,0.96579 0.32925,0.54875 0.3073,1.20725 0.3073,1.73404 l 0,0.3512 -0.3073,0 c -1.49258,0 -3.07297,0 -4.34606,0.46095 -1.58039,0.57069 -2.28279,1.75598 -2.28279,2.85347 0,1.47064 1.2731,2.85348 3.35833,2.85348 1.22919,0 2.50228,-0.46094 3.59977,-1.36089 l 0,1.0975 1.49259,0 0,-6.21181 c 0,-0.81214 -0.022,-1.58039 -0.4829,-2.37058 -0.65849,-1.07554 -1.93158,-1.64624 -3.49002,-1.64624 -1.33894,0 -2.63398,0.41705 -3.57782,1.38284 m 6.10205,4.14852 0,0.68045 c 0,0.50484 0,1.16334 -0.68044,1.88768 -0.37315,0.37315 -1.317,1.18529 -2.63398,1.18529 -1.33894,0 -2.10719,-0.85604 -2.10719,-1.73403 0,-0.7463 0.50485,-1.55844 1.75599,-1.86574 0.92189,-0.2195 2.26083,-0.15365 3.31442,-0.15365 l 0.3512,0"
         style="letter-spacing:-0.67495751px;fill:#ffffff;font-family:Inconsolata;-inkscape-font-specification:Inconsolata"
         id="path4055" />
      <path
         d="m 598.18752,676.63449 0,10.03108 1.58039,0 0,-4.87287 c 0,-0.61459 0.0219,-1.27309 0.7024,-2.34863 0.92189,-1.44869 2.10718,-1.69014 2.83152,-1.69014 0.8341,0 1.36089,0.3951 1.64624,0.7463 0.1317,0.17559 0.19755,0.35119 0.37315,0.50484 l 0.74629,-1.51454 c -0.63654,-0.65849 -1.55844,-1.09749 -2.67788,-1.09749 -1.47063,0 -2.96322,0.7463 -3.62172,2.17304 l 0.0658,-1.93159 -1.64624,0"
         style="letter-spacing:-0.67495751px;fill:#ffffff;font-family:Inconsolata;-inkscape-font-specification:Inconsolata"
         id="path4057" />
    </g>
  </g>
</svg>
